<svg width="720" height="420" viewBox="0 0 720 420" fill="none" xmlns="http://www.w3.org/2000/svg">
  <rect width="720" height="420" rx="28" fill="#10161E"/>
  <rect x="24" y="24" width="672" height="372" rx="26" fill="#121A24" stroke="#5A7899" stroke-opacity="0.22"/>
  <rect x="24" y="24" width="672" height="48" rx="26" fill="#182230"/>
  <circle cx="52" cy="48" r="5" fill="#FF5E57"/>
  <circle cx="68" cy="48" r="5" fill="#FEBB2E"/>
  <circle cx="84" cy="48" r="5" fill="#28C840"/>
  <text x="108" y="53" fill="#D5E5FB" font-family="Arial, Helvetica, sans-serif" font-size="14">simulacion guiada</text>

  <rect x="48" y="96" width="190" height="276" rx="20" fill="#152130"/>
  <rect x="68" y="118" width="104" height="24" rx="12" fill="#223246"/>
  <text x="92" y="134" fill="#D5E5FB" font-family="Arial, Helvetica, sans-serif" font-size="12" font-weight="700">ESCENARIOS</text>
  <rect x="68" y="168" width="146" height="40" rx="14" fill="#223246"/>
  <rect x="68" y="220" width="128" height="40" rx="14" fill="#1A2839"/>
  <rect x="68" y="272" width="136" height="40" rx="14" fill="#1A2839"/>

  <rect x="264" y="96" width="404" height="276" rx="22" fill="#0B1118"/>
  <text x="286" y="136" fill="#79E2B4" font-family="Consolas, monospace" font-size="16">kali@kali</text>
  <text x="363" y="136" fill="#EEF5FF" font-family="Consolas, monospace" font-size="16">:</text>
  <text x="374" y="136" fill="#84B6FF" font-family="Consolas, monospace" font-size="16">~/logs</text>
  <text x="420" y="136" fill="#EEF5FF" font-family="Consolas, monospace" font-size="16">$</text>
  <text x="286" y="170" fill="#EDF3FD" font-family="Consolas, monospace" font-size="16">grep -n error auth.log</text>
  <text x="286" y="206" fill="#9DE7BE" font-family="Consolas, monospace" font-size="16">14:error al validar sesion</text>
  <text x="286" y="236" fill="#9DE7BE" font-family="Consolas, monospace" font-size="16">27:error al cargar modulo</text>
  <rect x="286" y="282" width="178" height="12" rx="6" fill="#203245"/>
  <rect x="286" y="304" width="228" height="12" rx="6" fill="#203245"/>
  <rect x="286" y="332" width="120" height="10" rx="5" fill="#203245"/>
  <rect x="286" y="332" width="78" height="10" rx="5" fill="#5DD39E"/>
</svg>