<svg width="720" height="420" viewBox="0 0 720 420" fill="none" xmlns="http://www.w3.org/2000/svg">
  <rect width="720" height="420" rx="28" fill="#F8F2E7"/>
  <rect x="24" y="24" width="672" height="372" rx="26" fill="#FFFDF9" stroke="#1F2C2C" stroke-opacity="0.08"/>
  <rect x="48" y="48" width="136" height="28" rx="14" fill="#EEF2EC"/>
  <text x="76" y="66" fill="#516160" font-family="Arial, Helvetica, sans-serif" font-size="14" font-weight="700">MODO EXAMEN</text>

  <text x="48" y="124" fill="#1F2C2C" font-family="Arial, Helvetica, sans-serif" font-size="30" font-weight="700">Pregunta, progreso</text>
  <text x="48" y="160" fill="#1F2C2C" font-family="Arial, Helvetica, sans-serif" font-size="30" font-weight="700">y revision final</text>

  <rect x="48" y="196" width="296" height="18" rx="9" fill="#F1EADD"/>
  <rect x="48" y="196" width="188" height="18" rx="9" fill="#D46F45"/>

  <rect x="48" y="240" width="314" height="118" rx="22" fill="#FFFFFF" stroke="#1F2C2C" stroke-opacity="0.08"/>
  <rect x="72" y="264" width="114" height="24" rx="12" fill="#DCE7E3"/>
  <text x="102" y="280" fill="#244440" font-family="Arial, Helvetica, sans-serif" font-size="12" font-weight="700">PREGUNTA</text>
  <rect x="72" y="308" width="264" height="12" rx="6" fill="#EFE8DB"/>
  <rect x="72" y="330" width="224" height="12" rx="6" fill="#EFE8DB"/>

  <rect x="392" y="110" width="268" height="248" rx="22" fill="#FFFFFF" stroke="#1F2C2C" stroke-opacity="0.08"/>
  <text x="416" y="148" fill="#1F2C2C" font-family="Arial, Helvetica, sans-serif" font-size="24" font-weight="700">Resultado</text>
  <text x="416" y="216" fill="#8D4529" font-family="Arial, Helvetica, sans-serif" font-size="54" font-weight="700">8.7</text>
  <rect x="416" y="248" width="194" height="16" rx="8" fill="#EFE8DB"/>
  <rect x="416" y="248" width="136" height="16" rx="8" fill="#8AA79B"/>
  <rect x="416" y="292" width="184" height="14" rx="7" fill="#E3EFE8"/>
  <rect x="416" y="318" width="206" height="14" rx="7" fill="#F4E1D7"/>
</svg>